<?xml version="1.0" encoding="UTF-8" standalone="no"?>
<!DOCTYPE svg PUBLIC "-//W3C//DTD SVG 1.1//EN" "http://www.w3.org/Graphics/SVG/1.1/DTD/svg11.dtd">
<svg width="100%" height="100%" viewBox="0 0 750 233" version="1.1" xmlns="http://www.w3.org/2000/svg" xmlns:xlink="http://www.w3.org/1999/xlink" xml:space="preserve" xmlns:serif="http://www.serif.com/" style="fill-rule:evenodd;clip-rule:evenodd;stroke-linejoin:round;stroke-miterlimit:2;">
    <g transform="matrix(1,0,0,1,-75,-333.802)">
        <g transform="matrix(1,0,0,0.362857,0,0)">
            <g id="HeyHo" transform="matrix(0.0464792,0,0,0.0464792,77.0296,1182.52)">
                <g transform="matrix(4.3515,0,0,12.011,-83325.5,-8609.35)">
                    <path d="M20694.2,598.53C20630.4,598.53 20590.8,626.957 20566.7,662.276L20566.7,473.002L20458.1,473.002L20458.1,1046.62L20566.7,1046.62L20566.7,802.688C20566.7,752.726 20595.1,704.486 20659.7,704.486C20721.7,704.486 20745,746.696 20745,802.688L20745,1046.62L20854.4,1046.62L20854.4,780.291C20854.4,688.118 20804.4,598.53 20694.2,598.53Z" style="fill-rule:nonzero;"/>
                    <path d="M21155,598.53C21034.4,598.53 20931.9,690.703 20931.9,827.67C20931.9,960.33 21027.5,1056.81 21172.3,1056.81C21255,1056.81 21322.2,1017.18 21357.5,968.083L21269.6,916.397C21256.7,932.764 21222.2,959.468 21172.3,959.468C21112,959.468 21063.7,928.457 21048.2,869.88L21372.1,869.88C21391.9,697.594 21286.8,598.53 21155,598.53ZM21048.2,785.46C21061.1,729.467 21103.4,695.871 21156.8,695.871C21215.3,695.871 21254.1,728.606 21265.3,785.46L21048.2,785.46Z" style="fill-rule:nonzero;"/>
                    <g transform="matrix(1,0,0,1.00811,0,-9.82296)">
                        <path d="M21729.6,608.867L21627.1,897.446L21514.3,608.867L21396.2,608.867L21577.1,1019.77L21497,1211.87L21609,1211.87L21847.6,608.867L21729.6,608.867Z" style="fill-rule:nonzero;"/>
                    </g>
                    <path d="M22148.3,598.53C22084.5,598.53 22044.9,626.957 22020.8,662.276L22020.8,473.002L21912.2,473.002L21912.2,1046.62L22020.8,1046.62L22020.8,802.688C22020.8,752.726 22049.2,704.486 22113.8,704.486C22175.8,704.486 22199.1,746.696 22199.1,802.688L22199.1,1046.62L22308.5,1046.62L22308.5,780.291C22308.5,688.118 22258.5,598.53 22148.3,598.53Z" style="fill-rule:nonzero;"/>
                    <path d="M22616,598.53C22485.1,598.53 22386,699.317 22386,827.67C22386,955.161 22485.1,1056.81 22616,1056.81C22747.8,1056.81 22846.9,955.161 22846.9,827.67C22846.9,699.317 22747.8,598.53 22616,598.53ZM22616,951.716C22543.7,951.716 22498,895.723 22498,827.67C22498,759.617 22543.7,703.624 22616,703.624C22689.2,703.624 22734.9,759.617 22734.9,827.67C22734.9,895.723 22689.2,951.716 22616,951.716Z" style="fill-rule:nonzero;"/>
                </g>
                <g transform="matrix(4.16667,0,0,11.4829,-100840,-12539.4)">
                    <path d="M25007.2,1248C25007.2,1320.2 25025.2,1360.55 25065.2,1378C25134.5,1410.74 25275.9,1363.17 25275.9,1184.19C25267.7,952.563 25089.2,747.46 24840.8,717.535C24824.4,715.563 24807.8,714.849 24791.2,714.849C24771.9,714.849 24752.7,716.052 24733.7,718.403C24584.1,738.26 24460,820.436 24381.3,940.739C24334.1,1014.37 24306,1102.56 24306,1200.01C24306,1306.74 24339.3,1401.28 24393.8,1477.91C24471.8,1587.8 24594.4,1662.98 24735.7,1681.83C24754,1684.03 24772.3,1685.15 24790.7,1685.15C24802.4,1685.15 24813.8,1684.68 24825,1683.81C24897.9,1675.77 24963.4,1657.18 25027,1623.8C25054.2,1609.48 25069.8,1598.31 25069.8,1598.31L25135.8,1691.05C25111.3,1708.34 25085.3,1723.83 25058.2,1737.34C25001.1,1765.31 24915.3,1796.22 24810.9,1799.68C24804.5,1799.89 24798,1800 24791.5,1800C24637.6,1799.95 24489.3,1739.22 24378.5,1635.43C24269.2,1531.77 24198.8,1387.39 24191.7,1226.7C24191.4,1217.86 24191.2,1208.97 24191.2,1200.01C24191.2,1190.77 24191.4,1181.61 24191.8,1172.46C24198.9,1014.76 24267.1,872.836 24373.1,769.742C24484.5,662.752 24635.1,600 24791.2,600L24791.2,600C25019.6,600 25245.3,740.855 25342,961.996C25373.4,1034.41 25390.9,1114.2 25391.2,1198.03C25391,1391.18 25283.5,1451.57 25263.2,1465.42C25124.9,1556.3 24875.2,1501.65 24875.2,1296L24874.8,1189.85C24874.8,1157.65 24867.4,1130 24848.2,1113.19C24835.6,1102.21 24818.1,1096.13 24794.8,1096.13C24770.3,1096.13 24751.2,1103.28 24737.2,1115.11C24716.1,1132.98 24706.6,1161.18 24706.6,1189.85L24706.6,1436.94L24576.3,1436.94L24576.3,837.212L24706.6,837.212C24706.6,837.212 24706.6,1017.32 24706.6,1017.32C24733.7,988.349 24773.3,967.3 24830.8,967.3C24951.7,967.3 25007.1,1065.17 25007.1,1166.42L25007.2,1248Z" style="fill-rule:nonzero;"/>
                </g>
            </g>
        </g>
    </g>
</svg>
